<svg id="レイヤー_1" data-name="レイヤー 1" xmlns="http://www.w3.org/2000/svg" viewBox="0 0 260 32"> <title>_logo_moneyworld</title> <path d="M128.39,23.2V20.86H129c.28,0,.44-.16.47-.47l1-12.17h2.87l3.08,7.13.74,2h0c.25-.76.5-1.42.74-2L141,8.22h2.87l1,12.17c0,.31.18.47.46.47H146V23.2H143.6a1.36,1.36,0,0,1-1-.33,1.77,1.77,0,0,1-.37-1.11l-.51-6.66c0-.3,0-.64,0-1v-.94l0-.36h0a21.71,21.71,0,0,1-.82,2.33l-2.49,5.52h-2.24l-2.49-5.52c-.11-.26-.24-.58-.38-1s-.25-.72-.34-1l-.1-.4h0a16.36,16.36,0,0,1,0,2.35l-.48,6.66a1.77,1.77,0,0,1-.38,1.11,1.43,1.43,0,0,1-1.06.33Z" style="fill:#fff"/> <path d="M149.24,21.86a5.31,5.31,0,0,1-1.7-4,5.31,5.31,0,0,1,1.7-4,6.3,6.3,0,0,1,8.39,0,5.28,5.28,0,0,1,1.71,4,5.31,5.31,0,0,1-1.7,4,6.34,6.34,0,0,1-8.4,0Zm1-4a3.3,3.3,0,0,0,.92,2.41,3.21,3.21,0,0,0,4.54,0,3.27,3.27,0,0,0,.93-2.41,3.29,3.29,0,0,0-.94-2.41,3.18,3.18,0,0,0-4.53,0A3.35,3.35,0,0,0,150.25,17.82Z" style="fill:#fff"/> <path d="M162.1,23.2v-8a.41.41,0,0,0-.47-.46h-.84V12.44h2.47q1.41,0,1.41,1.2V14l0,.46h0a4.34,4.34,0,0,1,1.39-1.56,4.08,4.08,0,0,1,2.41-.68c2.5,0,3.76,1.37,3.76,4.1v4.2a.4.4,0,0,0,.46.46h.84V23.2H171a1.49,1.49,0,0,1-1.1-.34,1.52,1.52,0,0,1-.33-1.1V16.83a3,3,0,0,0-.37-1.64,1.48,1.48,0,0,0-1.32-.56,2.9,2.9,0,0,0-1.83.6,3.07,3.07,0,0,0-1.06,1.6,4.53,4.53,0,0,0-.21,1.43V23.2Z" style="fill:#fff"/> <path d="M175.33,17.82a5.6,5.6,0,0,1,1.52-4.06,5.26,5.26,0,0,1,4-1.58,4.42,4.42,0,0,1,3.5,1.45,5.31,5.31,0,0,1,1.27,3.66l-.06,1h-7.43a3.08,3.08,0,0,0,1,2.13,3.27,3.27,0,0,0,2.18.76,4.15,4.15,0,0,0,1.52-.3,4.93,4.93,0,0,0,1.11-.6l.38-.3,1.12,1.86-.19.18a6.71,6.71,0,0,1-.56.39,7.63,7.63,0,0,1-.89.48,7.05,7.05,0,0,1-1.2.39,6.12,6.12,0,0,1-1.48.18,5.58,5.58,0,0,1-4.19-1.63A5.5,5.5,0,0,1,175.33,17.82Zm2.83-1.39h4.67a2.29,2.29,0,0,0-.61-1.57,1.9,1.9,0,0,0-1.42-.61,2.61,2.61,0,0,0-1.72.58A2.88,2.88,0,0,0,178.16,16.43Z" style="fill:#fff"/> <path d="M188.33,24.63a2,2,0,0,0,1.54.74A1.87,1.87,0,0,0,191.65,24l.35-.82-3.58-8.08a.55.55,0,0,0-.57-.38h-.32V12.44h1.77a1.45,1.45,0,0,1,.89.23,1.65,1.65,0,0,1,.53.78l2.11,5.38.38,1.44h0a10,10,0,0,1,.36-1.44l1.83-5.38a1.38,1.38,0,0,1,1.44-1h1.81v2.28h-.31a.57.57,0,0,0-.61.38l-3.87,9.72a4.35,4.35,0,0,1-1.58,2.1,3.91,3.91,0,0,1-2.3.71,3.79,3.79,0,0,1-1.43-.27,3.41,3.41,0,0,1-1-.55l-.32-.28Z" style="fill:#fff"/> <path d="M201.61,10c-.1-.4-.38-.46-.78-.46h-.25V8.26h.65c1.06,0,1.55.19,1.8,1.22l2.57,10.24c.19.76.32,1.58.32,1.58h0s.19-.82.4-1.58l3.27-11.4h1.46l3,11.4a13.67,13.67,0,0,1,.34,1.58h0s.15-.82.34-1.58l2.58-10.24c.25-1,.73-1.22,1.79-1.22h.65V9.57h-.23c-.42,0-.67.06-.78.46l-3.42,13.06h-1.75l-2.76-10.31c-.26-.95-.49-2.2-.49-2.2h0s-.25,1.22-.53,2.17l-3,10.34H205Z" style="fill:#fff"/> <path d="M225.7,12.23a5.56,5.56,0,1,1,0,11.12,5.55,5.55,0,0,1-5.62-5.62A5.49,5.49,0,0,1,225.7,12.23Zm0,9.83a4.19,4.19,0,0,0,4.11-4.33,4.13,4.13,0,1,0-8.25,0A4.19,4.19,0,0,0,225.73,22.06Z" style="fill:#fff"/><path d="M234.74,14.19a.42.42,0,0,0-.47-.46h-.88V12.48h1.48c.88,0,1.28.36,1.28,1.2v.72c0,.44,0,.8,0,.8h0a3.63,3.63,0,0,1,3.36-2.83,2.68,2.68,0,0,1,.57.07v1.41a4,4,0,0,0-.53,0,3.39,3.39,0,0,0-3.08,2.74,7.1,7.1,0,0,0-.3,2.07v4.47h-1.43Z" style="fill:#fff"/> <path d="M243,10a.43.43,0,0,0-.47-.47h-.88V8.26h1.49c.91,0,1.29.38,1.29,1.29V21.38a.42.42,0,0,0,.46.47h.89v1.24h-1.5c-.9,0-1.28-.38-1.28-1.28Z" style="fill:#fff"/> <path d="M252.73,12.23a3.74,3.74,0,0,1,3.46,2h0s0-.36,0-.8V10a.42.42,0,0,0-.46-.47h-.89V8.26h1.5c.91,0,1.29.38,1.29,1.29V21.38a.41.41,0,0,0,.46.47H259v1.24H257.5c-.89,0-1.27-.4-1.27-1.18a4.06,4.06,0,0,1,0-.67h0a3.83,3.83,0,0,1-3.65,2.11c-2.85,0-4.62-2.28-4.62-5.57S250,12.23,252.73,12.23Zm3.5,5.55c0-2.16-1.09-4.27-3.37-4.27-1.88,0-3.42,1.59-3.42,4.27s1.37,4.28,3.35,4.28C254.57,22.06,256.23,20.79,256.23,17.78Z" style="fill:#fff"/> <path d="M82.4,22.07A3.1,3.1,0,1,1,79.3,19,3.11,3.11,0,0,1,82.4,22.07Z" style="fill:#fff"/> <path d="M90.08,12.55h3.8V17.9a5.71,5.71,0,1,1-11.41,0V12.55h3.8V17.9a1.91,1.91,0,1,0,3.81,0Z" style="fill:#fff"/> <rect x="95.41" y="12.55" width="3.8" height="10.68" style="fill:#fff"/> <path d="M106.07,16a1.88,1.88,0,0,1,1.64,1L111,15a5.74,5.74,0,1,0,0,5.75l-3.3-1.91A1.91,1.91,0,1,1,106.07,16Z" style="fill:#fff"/> <polygon points="124.15 23.23 118.43 17.88 123.76 12.55 118.81 12.55 115.7 15.68 115.7 8.05 111.9 8.05 111.9 23.23 115.7 23.23 115.7 20.1 118.81 23.23 124.15 23.23" style="fill:#fff"/> <path d="M75.13,22.05a4.17,4.17,0,0,1,4.17-4.18,4.44,4.44,0,0,1,1.22.18,7.67,7.67,0,0,0,.33-2.26,7.79,7.79,0,1,0-7.79,7.83,7.67,7.67,0,0,0,2.26-.33A3.92,3.92,0,0,1,75.13,22.05Zm-5.86-6.26a3.79,3.79,0,1,1,3.79,3.79A3.79,3.79,0,0,1,69.27,15.79Z" style="fill:#fff"/> <path d="M53.09,20h0a2.66,2.66,0,0,1,0,3.76L46.86,30a3.33,3.33,0,0,1-4.72,0l-8.79-8.79L24.55,30a3.31,3.31,0,0,1-4.71,0L9.16,19.35a2.66,2.66,0,0,1,0-3.76h0a2.67,2.67,0,0,1,3.76,0l9.27,9.28L33.35,13.72,44.5,24.87,49.34,20A2.66,2.66,0,0,1,53.09,20Z" style="fill:#fff"/> <path d="M1.78,12h0a2.66,2.66,0,0,1,0-3.76L8,2a3.33,3.33,0,0,1,4.72,0l8.79,8.79L30.32,2A3.31,3.31,0,0,1,35,2L45.71,12.65a2.67,2.67,0,0,1,0,3.76h0a2.67,2.67,0,0,1-3.76,0L32.68,7.13,21.52,18.28,10.37,7.13,5.53,12A2.66,2.66,0,0,1,1.78,12Z" style="fill:#fff"/> </svg>