<svg width="160" height="160" viewBox="0 0 160 160" fill="none"
    xmlns="http://www.w3.org/2000/svg">
    <rect width="160" height="160" rx="32" fill="white"/>
    <g clip-path="url(#clip0_3019_20596)">
        <path d="M79.81 68.6399V68.7299L51 84.6299L55.12 86.8999L83.93 70.9999V70.9199L79.89 68.6799L79.81 68.6399Z" fill="#4EACC1"/>
        <path d="M96.27 59.6401L98.16 58.6001L96.27 59.6401Z" fill="#2D56A6"/>
        <path d="M96.27 77.82L67.47 93.72L71.58 95.99L100.39 80.09V80.06L96.27 77.78V77.82Z" fill="#4EACC1"/>
        <path d="M104.51 82.3601L75.7 98.2601L79.8099 100.53L108.62 84.6301L104.51 82.3501V82.3601Z" fill="#4EACC1"/>
        <path d="M88.04 73.27L59.23 89.18L63.35 91.45L92.16 75.54V75.49L88.04 73.21V73.27Z" fill="#4EACC1"/>
        <path d="M79.8899 68.68L83.9299 70.9199V66.45L79.8899 68.68Z" fill="#9CAED5"/>
        <path d="M98.16 58.6001L96.27 59.6401V77.7801L100.39 80.0601V57.3701L98.16 58.6001Z" fill="#9CAED5"/>
        <path d="M104.51 55.0901V82.3501L108.62 84.6301V52.8201L104.51 55.0901Z" fill="#9CAED5"/>
        <path d="M88.04 64.1799V73.2099L92.16 75.4899V61.9099L88.04 64.1799Z" fill="#9CAED5"/>
        <path d="M79.8901 67.2199L79.8101 67.1699V67.2699L79.8901 67.2199Z" fill="#2D56A6"/>
        <g style="mix-blend-mode:multiply">
            <path d="M79.81 34L51 50.63V83.9L51.08 83.95L79.81 100.54V67.27L79.89 67.32L108.62 50.73V50.63L79.81 34ZM59.75 84.07L55.12 81.49V76.19L59.75 78.77V84.07ZM59.75 74.65L55.12 72.07V66.77L59.75 69.35V74.65ZM59.75 65.23L55.12 62.65V57.35L59.75 59.93V65.23ZM67.98 88.65L63.35 86.07V80.77L67.98 83.35V88.65ZM67.98 79.23L63.35 76.65V71.35L67.98 73.93V79.23ZM67.98 69.81L63.35 67.23V61.93L67.98 64.51V69.81ZM76.21 93.23L71.58 90.65V85.35L76.21 87.93V93.23ZM76.21 83.81L71.58 81.23V75.93L76.21 78.51V83.81ZM76.21 74.39L71.58 71.81V66.51L76.21 69.09V74.39Z" fill="#2B7DB9"/>
        </g>
        <path d="M56.56 109.95C60.49 109.95 62.63 111.35 62.63 114.31C62.63 116.02 61.76 117.2 60.44 117.85C62.15 118.48 63.16 119.73 63.16 121.8C63.16 124.38 61.47 126.57 57.09 126.57H51V109.95H56.56ZM54.37 116.52H56.61C58.46 116.52 59.26 115.8 59.26 114.62C59.26 113.44 58.68 112.79 56.25 112.79H54.37V116.52ZM54.37 123.72H56.8C58.82 123.72 59.79 122.95 59.79 121.53C59.79 119.97 58.75 119.36 56.49 119.36H54.37V123.72Z" fill="#2B7DB9"/>
        <path d="M77.55 109.95C81.48 109.95 83.62 111.35 83.62 114.31C83.62 116.02 82.75 117.2 81.43 117.85C83.14 118.48 84.15 119.73 84.15 121.8C84.15 124.38 82.46 126.57 78.08 126.57H71.99V109.95H77.55ZM75.36 116.52H77.6C79.45 116.52 80.25 115.8 80.25 114.62C80.25 113.44 79.67 112.79 77.24 112.79H75.36V116.52ZM75.36 123.72H77.79C79.81 123.72 80.78 122.95 80.78 121.53C80.78 119.97 79.74 119.36 77.48 119.36H75.36V123.72Z" fill="#2B7DB9"/>
        <path d="M100.79 119.01L105.41 109.95H108.61V126.57H105.38V116.26L101.77 123.58H99.72L96.16 116.33V126.57H92.96V109.95H96.11L100.78 119.01H100.79Z" fill="#2B7DB9"/>
    </g>
    <defs>
        <clipPath id="clip0_3019_20596">
            <rect width="57.62" height="92.57" fill="white" transform="translate(51 34)"/>
        </clipPath>
    </defs>
</svg>
