<?xml version="1.0" encoding="UTF-8"?>
<svg xmlns="http://www.w3.org/2000/svg" xmlns:xlink="http://www.w3.org/1999/xlink" width="34px" height="34px" viewBox="0 0 34 34" version="1.1">
<g id="surface1">
<path style=" stroke:none;fill-rule:nonzero;fill:rgb(100%,0%,0%);fill-opacity:1;" d="M 5.570312 0 L 28.429688 0 C 31.507812 0 34 2.492188 34 5.570312 L 34 28.429688 C 34 31.507812 31.507812 34 28.429688 34 L 5.570312 34 C 2.492188 34 0 31.507812 0 28.429688 L 0 5.570312 C 0 2.492188 2.492188 0 5.570312 0 Z M 5.570312 0 "/>
<path style=" stroke:none;fill-rule:nonzero;fill:rgb(100%,100%,100%);fill-opacity:1;" d="M 16.992188 8.980469 C 16.992188 8.980469 9.828125 8.980469 8.03125 9.445312 C 7.066406 9.714844 6.273438 10.507812 6.003906 11.484375 C 5.539062 13.28125 5.539062 17.007812 5.539062 17.007812 C 5.539062 17.007812 5.539062 20.746094 6.003906 22.515625 C 6.273438 23.492188 7.054688 24.269531 8.03125 24.539062 C 9.84375 25.019531 16.992188 25.019531 16.992188 25.019531 C 16.992188 25.019531 24.171875 25.019531 25.96875 24.554688 C 26.945312 24.285156 27.726562 23.519531 27.980469 22.53125 C 28.460938 20.746094 28.460938 17.019531 28.460938 17.019531 C 28.460938 17.019531 28.476562 13.28125 27.980469 11.484375 C 27.726562 10.507812 26.945312 9.730469 25.96875 9.472656 C 24.171875 8.980469 16.992188 8.980469 16.992188 8.980469 Z M 14.714844 13.566406 L 20.675781 17.007812 L 14.714844 20.433594 Z M 14.714844 13.566406 "/>
</g>
</svg>
