<svg width="20" height="20" viewBox="0 0 20 20" fill="none" xmlns="http://www.w3.org/2000/svg">
<g opacity="0.4" clip-path="url(#clip0_3165_26736)">
<path d="M10.0001 1.66699C5.40008 1.66699 1.66675 5.40033 1.66675 10.0003C1.66675 14.6003 5.40008 18.3337 10.0001 18.3337C14.6001 18.3337 18.3334 14.6003 18.3334 10.0003C18.3334 5.40033 14.6001 1.66699 10.0001 1.66699ZM13.3334 10.8337H10.8334V13.3337C10.8334 13.792 10.4584 14.167 10.0001 14.167C9.54175 14.167 9.16675 13.792 9.16675 13.3337V10.8337H6.66675C6.20842 10.8337 5.83342 10.4587 5.83342 10.0003C5.83342 9.54199 6.20842 9.16699 6.66675 9.16699H9.16675V6.66699C9.16675 6.20866 9.54175 5.83366 10.0001 5.83366C10.4584 5.83366 10.8334 6.20866 10.8334 6.66699V9.16699H13.3334C13.7917 9.16699 14.1667 9.54199 14.1667 10.0003C14.1667 10.4587 13.7917 10.8337 13.3334 10.8337Z" fill="#00152A"/>
</g>
<defs>
<clipPath id="clip0_3165_26736">
<rect width="20" height="20" fill="white"/>
</clipPath>
</defs>
</svg>
