<svg width="16" height="16" viewBox="0 0 16 16" fill="none" xmlns="http://www.w3.org/2000/svg">
<g clip-path="url(#clip0_3019_20871)">
<path fill-rule="evenodd" clip-rule="evenodd" d="M0.999917 11.5001C0.999917 11.6328 1.0526 11.7599 1.14636 11.8537C1.24013 11.9475 1.36731 12.0001 1.49992 12.0001H13.2929L10.1459 15.1461C10.052 15.24 9.99929 15.3674 9.99929 15.5001C9.99929 15.6329 10.052 15.7603 10.1459 15.8541C10.2398 15.948 10.3671 16.0008 10.4999 16.0008C10.6327 16.0008 10.76 15.948 10.8539 15.8541L14.8539 11.8541C14.9005 11.8077 14.9374 11.7525 14.9626 11.6918C14.9878 11.631 15.0008 11.5659 15.0008 11.5001C15.0008 11.4344 14.9878 11.3693 14.9626 11.3085C14.9374 11.2478 14.9005 11.1926 14.8539 11.1461L10.8539 7.14614C10.76 7.05226 10.6327 6.99951 10.4999 6.99951C10.3671 6.99951 10.2398 7.05226 10.1459 7.14614C10.052 7.24003 9.99929 7.36737 9.99929 7.50014C9.99929 7.63292 10.052 7.76026 10.1459 7.85414L13.2929 11.0001H1.49992C1.36731 11.0001 1.24013 11.0528 1.14636 11.1466C1.0526 11.2404 0.999917 11.3675 0.999917 11.5001ZM14.9999 4.50014C14.9999 4.63275 14.9472 4.75993 14.8535 4.8537C14.7597 4.94746 14.6325 5.00014 14.4999 5.00014H2.70692L5.85392 8.14614C5.9004 8.19263 5.93728 8.24782 5.96244 8.30856C5.9876 8.3693 6.00055 8.4344 6.00055 8.50014C6.00055 8.56589 5.9876 8.63099 5.96244 8.69173C5.93728 8.75247 5.9004 8.80766 5.85392 8.85414C5.80743 8.90063 5.75224 8.93751 5.6915 8.96267C5.63076 8.98783 5.56566 9.00077 5.49992 9.00077C5.43417 9.00077 5.36907 8.98783 5.30833 8.96267C5.24759 8.93751 5.1924 8.90063 5.14592 8.85414L1.14592 4.85414C1.09935 4.8077 1.06241 4.75252 1.0372 4.69178C1.012 4.63103 0.999023 4.56591 0.999023 4.50014C0.999023 4.43438 1.012 4.36926 1.0372 4.30851C1.06241 4.24776 1.09935 4.19259 1.14592 4.14614L5.14592 0.146143C5.2398 0.0522567 5.36714 -0.000488281 5.49992 -0.000488281C5.63269 -0.000488281 5.76003 0.0522567 5.85392 0.146143C5.9478 0.24003 6.00055 0.367368 6.00055 0.500143C6.00055 0.632919 5.9478 0.760257 5.85392 0.854143L2.70692 4.00014H14.4999C14.6325 4.00014 14.7597 4.05282 14.8535 4.14659C14.9472 4.24036 14.9999 4.36754 14.9999 4.50014Z" fill="white"/>
</g>
<defs>
<clipPath id="clip0_3019_20871">
<rect width="16" height="16" fill="white"/>
</clipPath>
</defs>
</svg>
