<svg width="16" height="16" viewBox="0 0 16 16" fill="none" xmlns="http://www.w3.org/2000/svg">
<g clip-path="url(#clip0_3019_20878)">
<path d="M8.277 0.0842299C8.19494 0.0296226 8.09857 0.000488281 8 0.000488281C7.90143 0.000488281 7.80506 0.0296226 7.723 0.0842299L0.223 5.08423C0.133747 5.14374 0.0660011 5.23038 0.0297692 5.33136C-0.00646277 5.43233 -0.00925954 5.54227 0.021792 5.64496C0.0528435 5.74764 0.116097 5.83762 0.202209 5.90159C0.28832 5.96556 0.392725 6.00015 0.5 6.00023H2.375V13.0002H1.5C1.36739 13.0002 1.24021 13.0529 1.14645 13.1467C1.05268 13.2404 1 13.3676 1 13.5002C1 13.6328 1.05268 13.76 1.14645 13.8538C1.24021 13.9476 1.36739 14.0002 1.5 14.0002H14.5C14.6326 14.0002 14.7598 13.9476 14.8536 13.8538C14.9473 13.76 15 13.6328 15 13.5002C15 13.3676 14.9473 13.2404 14.8536 13.1467C14.7598 13.0529 14.6326 13.0002 14.5 13.0002H13.625V6.00023H15.5C15.6073 6.00015 15.7117 5.96556 15.7978 5.90159C15.8839 5.83762 15.9472 5.74764 15.9782 5.64496C16.0093 5.54227 16.0065 5.43233 15.9702 5.33136C15.934 5.23038 15.8663 5.14374 15.777 5.08423L8.277 0.0842299ZM12.375 6.00023V13.0002H11.125V6.00023H12.375ZM9.875 6.00023V13.0002H8.625V6.00023H9.875ZM7.375 6.00023V13.0002H6.125V6.00023H7.375ZM4.875 6.00023V13.0002H3.625V6.00023H4.875ZM8 4.00023C7.73478 4.00023 7.48043 3.89487 7.29289 3.70734C7.10536 3.5198 7 3.26545 7 3.00023C7 2.73501 7.10536 2.48066 7.29289 2.29312C7.48043 2.10559 7.73478 2.00023 8 2.00023C8.26522 2.00023 8.51957 2.10559 8.70711 2.29312C8.89464 2.48066 9 2.73501 9 3.00023C9 3.26545 8.89464 3.5198 8.70711 3.70734C8.51957 3.89487 8.26522 4.00023 8 4.00023ZM0.5 15.0002C0.367392 15.0002 0.240215 15.0529 0.146447 15.1467C0.0526784 15.2404 0 15.3676 0 15.5002C0 15.6328 0.0526784 15.76 0.146447 15.8538C0.240215 15.9476 0.367392 16.0002 0.5 16.0002H15.5C15.6326 16.0002 15.7598 15.9476 15.8536 15.8538C15.9473 15.76 16 15.6328 16 15.5002C16 15.3676 15.9473 15.2404 15.8536 15.1467C15.7598 15.0529 15.6326 15.0002 15.5 15.0002H0.5Z" fill="white"/>
</g>
<defs>
<clipPath id="clip0_3019_20878">
<rect width="16" height="16" fill="white"/>
</clipPath>
</defs>
</svg>
