<svg width="16" height="16" viewBox="0 0 16 16" fill="none" xmlns="http://www.w3.org/2000/svg">
<g clip-path="url(#clip0_3019_20843)">
<path fill-rule="evenodd" clip-rule="evenodd" d="M14.763 0.0748824C14.8354 0.119677 14.8952 0.182228 14.9367 0.256606C14.9782 0.330983 15 0.414722 15 0.499882V15.4999C15 15.6325 14.9473 15.7597 14.8536 15.8534C14.7598 15.9472 14.6326 15.9999 14.5 15.9999H11.5C11.3674 15.9999 11.2402 15.9472 11.1464 15.8534C11.0527 15.7597 11 15.6325 11 15.4999V13.9999H10V15.4999C10 15.6325 9.94732 15.7597 9.85355 15.8534C9.75979 15.9472 9.63261 15.9999 9.5 15.9999H0.5C0.367392 15.9999 0.240215 15.9472 0.146447 15.8534C0.0526784 15.7597 0 15.6325 0 15.4999V9.99988C7.96467e-05 9.89499 0.0331481 9.79277 0.0945249 9.7077C0.155902 9.62264 0.242478 9.55903 0.342 9.52588L6 7.63988V4.49988C6 4.4071 6.02582 4.31616 6.07456 4.23721C6.12331 4.15827 6.19305 4.09445 6.276 4.05288L14.276 0.0528824C14.3523 0.0146883 14.4371 -0.00334141 14.5224 0.00050948C14.6076 0.00436037 14.6904 0.0299637 14.763 0.0748824ZM6 8.69388L1 10.3599V14.9999H6V8.69388ZM7 14.9999H9V13.4999C9 13.3673 9.05268 13.2401 9.14645 13.1463C9.24021 13.0526 9.36739 12.9999 9.5 12.9999H11.5C11.6326 12.9999 11.7598 13.0526 11.8536 13.1463C11.9473 13.2401 12 13.3673 12 13.4999V14.9999H14V1.30888L7 4.80888V14.9999Z" fill="white"/>
<path d="M2 10.9999H3V11.9999H2V10.9999ZM4 10.9999H5V11.9999H4V10.9999ZM2 12.9999H3V13.9999H2V12.9999ZM4 12.9999H5V13.9999H4V12.9999ZM8 8.99988H9V9.99988H8V8.99988ZM10 8.99988H11V9.99988H10V8.99988ZM8 10.9999H9V11.9999H8V10.9999ZM10 10.9999H11V11.9999H10V10.9999ZM12 8.99988H13V9.99988H12V8.99988ZM12 10.9999H13V11.9999H12V10.9999ZM8 6.99988H9V7.99988H8V6.99988ZM10 6.99988H11V7.99988H10V6.99988ZM12 6.99988H13V7.99988H12V6.99988ZM8 4.99988H9V5.99988H8V4.99988ZM10 4.99988H11V5.99988H10V4.99988ZM12 4.99988H13V5.99988H12V4.99988ZM12 2.99988H13V3.99988H12V2.99988Z" fill="white"/>
</g>
<defs>
<clipPath id="clip0_3019_20843">
<rect width="16" height="16" fill="white"/>
</clipPath>
</defs>
</svg>
