<svg width="32" height="32" viewBox="0 0 32 32" fill="none" xmlns="http://www.w3.org/2000/svg">
<path fill-rule="evenodd" clip-rule="evenodd" d="M16 0C13.3605 0.00827703 10.811 0.96027 8.812 2.684C7.28 4.004 6.17 5.724 5.884 7.45C2.532 8.19 0 11.11 0 14.636C0 18.732 3.416 22 7.562 22H15V11.414L10.708 15.708C10.5202 15.8958 10.2656 16.0013 10 16.0013C9.73445 16.0013 9.47977 15.8958 9.292 15.708C9.10423 15.5202 8.99874 15.2656 8.99874 15C8.99874 14.7344 9.10423 14.4798 9.292 14.292L15.292 8.292C15.3849 8.19887 15.4952 8.12499 15.6167 8.07457C15.7382 8.02416 15.8685 7.99821 16 7.99821C16.1315 7.99821 16.2618 8.02416 16.3833 8.07457C16.5048 8.12499 16.6151 8.19887 16.708 8.292L22.708 14.292C22.8958 14.4798 23.0013 14.7344 23.0013 15C23.0013 15.2656 22.8958 15.5202 22.708 15.708C22.5202 15.8958 22.2656 16.0013 22 16.0013C21.7344 16.0013 21.4798 15.8958 21.292 15.708L17 11.414V22H25.376C29.004 22 32 19.14 32 15.546C32 12.274 29.516 9.608 26.332 9.158C25.846 3.998 21.38 0 16 0ZM15 29V22H17V29C17 29.2652 16.8946 29.5196 16.7071 29.7071C16.5196 29.8946 16.2652 30 16 30C15.7348 30 15.4804 29.8946 15.2929 29.7071C15.1054 29.5196 15 29.2652 15 29Z" fill="#192F51"/>
</svg>
