<svg width="16" height="16" viewBox="0 0 16 16" fill="none" xmlns="http://www.w3.org/2000/svg">
<path fill-rule="evenodd" clip-rule="evenodd" d="M8.35392 1.64592C8.40048 1.69236 8.43742 1.74754 8.46263 1.80828C8.48784 1.86903 8.50081 1.93415 8.50081 1.99992C8.50081 2.06568 8.48784 2.13081 8.46263 2.19155C8.43742 2.2523 8.40048 2.30747 8.35392 2.35392L2.70692 7.99992L8.35392 13.6459C8.4478 13.7398 8.50055 13.8671 8.50055 13.9999C8.50055 14.1327 8.4478 14.26 8.35392 14.3539C8.26003 14.4478 8.13269 14.5005 7.99992 14.5005C7.86714 14.5005 7.7398 14.4478 7.64592 14.3539L1.64592 8.35392C1.59935 8.30747 1.56241 8.2523 1.5372 8.19155C1.512 8.13081 1.49902 8.06568 1.49902 7.99992C1.49902 7.93415 1.512 7.86903 1.5372 7.80828C1.56241 7.74754 1.59935 7.69236 1.64592 7.64592L7.64592 1.64592C7.69236 1.59935 7.74754 1.56241 7.80828 1.5372C7.86903 1.512 7.93415 1.49902 7.99992 1.49902C8.06568 1.49902 8.13081 1.512 8.19155 1.5372C8.2523 1.56241 8.30747 1.59935 8.35392 1.64592Z" fill="#6C757D"/>
<path fill-rule="evenodd" clip-rule="evenodd" d="M12.3539 1.64592C12.4005 1.69236 12.4374 1.74754 12.4626 1.80828C12.4878 1.86903 12.5008 1.93415 12.5008 1.99992C12.5008 2.06568 12.4878 2.13081 12.4626 2.19155C12.4374 2.2523 12.4005 2.30747 12.3539 2.35392L6.70692 7.99992L12.3539 13.6459C12.4004 13.6924 12.4373 13.7476 12.4624 13.8083C12.4876 13.8691 12.5005 13.9342 12.5005 13.9999C12.5005 14.0657 12.4876 14.1308 12.4624 14.1915C12.4373 14.2522 12.4004 14.3074 12.3539 14.3539C12.3074 14.4004 12.2522 14.4373 12.1915 14.4624C12.1308 14.4876 12.0657 14.5005 11.9999 14.5005C11.9342 14.5005 11.8691 14.4876 11.8083 14.4624C11.7476 14.4373 11.6924 14.4004 11.6459 14.3539L5.64592 8.35392C5.59935 8.30747 5.56241 8.2523 5.5372 8.19155C5.512 8.13081 5.49902 8.06568 5.49902 7.99992C5.49902 7.93415 5.512 7.86903 5.5372 7.80828C5.56241 7.74754 5.59935 7.69236 5.64592 7.64592L11.6459 1.64592C11.6924 1.59935 11.7475 1.56241 11.8083 1.5372C11.869 1.512 11.9341 1.49902 11.9999 1.49902C12.0657 1.49902 12.1308 1.512 12.1916 1.5372C12.2523 1.56241 12.3075 1.59935 12.3539 1.64592Z" fill="#6C757D"/>
</svg>
