<svg width="16" height="16" viewBox="0 0 16 16" fill="none" xmlns="http://www.w3.org/2000/svg">
<path fill-rule="evenodd" clip-rule="evenodd" d="M3.64592 1.64592C3.69236 1.59935 3.74754 1.56241 3.80828 1.5372C3.86903 1.512 3.93415 1.49902 3.99992 1.49902C4.06568 1.49902 4.13081 1.512 4.19155 1.5372C4.2523 1.56241 4.30747 1.59935 4.35392 1.64592L10.3539 7.64592C10.4005 7.69236 10.4374 7.74754 10.4626 7.80828C10.4878 7.86903 10.5008 7.93415 10.5008 7.99992C10.5008 8.06568 10.4878 8.13081 10.4626 8.19155C10.4374 8.2523 10.4005 8.30747 10.3539 8.35392L4.35392 14.3539C4.26003 14.4478 4.13269 14.5005 3.99992 14.5005C3.86714 14.5005 3.7398 14.4478 3.64592 14.3539C3.55203 14.26 3.49929 14.1327 3.49929 13.9999C3.49929 13.8671 3.55203 13.7398 3.64592 13.6459L9.29292 7.99992L3.64592 2.35392C3.59935 2.30747 3.56241 2.2523 3.5372 2.19155C3.512 2.13081 3.49902 2.06568 3.49902 1.99992C3.49902 1.93415 3.512 1.86903 3.5372 1.80828C3.56241 1.74754 3.59935 1.69236 3.64592 1.64592Z" fill="#1750AA"/>
<path fill-rule="evenodd" clip-rule="evenodd" d="M7.64592 1.64592C7.69236 1.59935 7.74754 1.56241 7.80828 1.5372C7.86903 1.512 7.93415 1.49902 7.99992 1.49902C8.06568 1.49902 8.13081 1.512 8.19155 1.5372C8.2523 1.56241 8.30747 1.59935 8.35392 1.64592L14.3539 7.64592C14.4005 7.69236 14.4374 7.74754 14.4626 7.80828C14.4878 7.86903 14.5008 7.93415 14.5008 7.99992C14.5008 8.06568 14.4878 8.13081 14.4626 8.19155C14.4374 8.2523 14.4005 8.30747 14.3539 8.35392L8.35392 14.3539C8.26003 14.4478 8.13269 14.5005 7.99992 14.5005C7.86714 14.5005 7.7398 14.4478 7.64592 14.3539C7.55203 14.26 7.49929 14.1327 7.49929 13.9999C7.49929 13.8671 7.55203 13.7398 7.64592 13.6459L13.2929 7.99992L7.64592 2.35392C7.59935 2.30747 7.56241 2.2523 7.5372 2.19155C7.512 2.13081 7.49902 2.06568 7.49902 1.99992C7.49902 1.93415 7.512 1.86903 7.5372 1.80828C7.56241 1.74754 7.59935 1.69236 7.64592 1.64592Z" fill="#1750AA"/>
</svg>
