<svg width="14" height="14" viewBox="0 0 14 14" fill="none" xmlns="http://www.w3.org/2000/svg">
<g clip-path="url(#clip0_3019_20634)">
<rect width="14" height="14" fill="white" fill-opacity="0.01"/>
<g clip-path="url(#clip1_3019_20634)">
<path d="M-0.000243875 6.99917C-0.000543952 6.22845 0.253561 5.47918 0.722636 4.86764C1.19171 4.2561 1.84953 3.81649 2.59399 3.61704C3.33846 3.41758 4.12794 3.46943 4.83992 3.76455C5.55191 4.05966 6.14657 4.58153 6.53163 5.24917H12.2498C12.3072 5.24906 12.3642 5.26029 12.4173 5.28221C12.4705 5.30413 12.5188 5.33631 12.5595 5.37692L13.872 6.68942C13.9127 6.73006 13.9451 6.77833 13.9671 6.83149C13.9892 6.88464 14.0005 6.94162 14.0005 6.99917C14.0005 7.05671 13.9892 7.11369 13.9671 7.16685C13.9451 7.22 13.9127 7.26828 13.872 7.30892L12.5595 8.62142C12.5189 8.66216 12.4706 8.69448 12.4174 8.71654C12.3643 8.7386 12.3073 8.74995 12.2498 8.74995C12.1922 8.74995 12.1352 8.7386 12.0821 8.71654C12.0289 8.69448 11.9806 8.66216 11.94 8.62142L11.3748 8.05529L10.8095 8.62142C10.7689 8.66216 10.7206 8.69448 10.6674 8.71654C10.6143 8.7386 10.5573 8.74995 10.4998 8.74995C10.4422 8.74995 10.3852 8.7386 10.3321 8.71654C10.2789 8.69448 10.2306 8.66216 10.19 8.62142L9.62476 8.05529L9.05951 8.62142C9.01887 8.66216 8.97059 8.69448 8.91743 8.71654C8.86428 8.7386 8.8073 8.74995 8.74976 8.74995C8.69221 8.74995 8.63523 8.7386 8.58208 8.71654C8.52892 8.69448 8.48065 8.66216 8.44001 8.62142L7.87476 8.05529L7.30951 8.62142C7.2688 8.66202 7.22049 8.6942 7.16734 8.71612C7.1142 8.73804 7.05725 8.74927 6.99976 8.74917H6.53163C6.14657 9.4168 5.55191 9.93867 4.83992 10.2338C4.12794 10.5289 3.33846 10.5808 2.59399 10.3813C1.84953 10.1818 1.19171 9.74223 0.722636 9.1307C0.253561 8.51916 -0.000543952 7.76989 -0.000243875 6.99917ZM3.49976 4.37417C3.03 4.37434 2.56891 4.50058 2.16457 4.73969C1.76023 4.9788 1.42746 5.32204 1.20098 5.73359C0.974502 6.14514 0.862611 6.60993 0.87698 7.07946C0.891349 7.54899 1.03145 8.00607 1.28267 8.403C1.53389 8.79993 1.88703 9.12218 2.30523 9.33612C2.72344 9.55006 3.19139 9.64786 3.66027 9.61932C4.12916 9.59077 4.58179 9.43692 4.97095 9.17382C5.36011 8.91073 5.67155 8.54802 5.87276 8.12354C5.90828 8.04896 5.96419 7.98595 6.03403 7.94182C6.10387 7.89769 6.18477 7.87424 6.26738 7.87417H6.81863L7.56501 7.12692C7.60565 7.08617 7.65392 7.05385 7.70708 7.03179C7.76023 7.00974 7.81721 6.99838 7.87476 6.99838C7.9323 6.99838 7.98928 7.00974 8.04243 7.03179C8.09559 7.05385 8.14387 7.08617 8.18451 7.12692L8.74976 7.69304L9.31501 7.12692C9.35565 7.08617 9.40392 7.05385 9.45708 7.03179C9.51023 7.00974 9.56721 6.99838 9.62476 6.99838C9.6823 6.99838 9.73928 7.00974 9.79243 7.03179C9.84559 7.05385 9.89387 7.08617 9.93451 7.12692L10.4998 7.69304L11.065 7.12692C11.1056 7.08617 11.1539 7.05385 11.2071 7.03179C11.2602 7.00974 11.3172 6.99838 11.3748 6.99838C11.4323 6.99838 11.4893 7.00974 11.5424 7.03179C11.5956 7.05385 11.6439 7.08617 11.6845 7.12692L12.2498 7.69304L12.9436 6.99917L12.0686 6.12417H6.26738C6.18477 6.1241 6.10387 6.10064 6.03403 6.05651C5.96419 6.01238 5.90828 5.94938 5.87276 5.87479C5.65986 5.42566 5.32383 5.04621 4.90374 4.78056C4.48366 4.5149 3.99679 4.37398 3.49976 4.37417Z" fill="#6C757D"/>
<path d="M3.49976 6.99917C3.49976 7.23123 3.40757 7.45379 3.24347 7.61789C3.07938 7.78198 2.85682 7.87417 2.62476 7.87417C2.39269 7.87417 2.17013 7.78198 2.00604 7.61789C1.84194 7.45379 1.74976 7.23123 1.74976 6.99917C1.74976 6.7671 1.84194 6.54454 2.00604 6.38045C2.17013 6.21635 2.39269 6.12417 2.62476 6.12417C2.85682 6.12417 3.07938 6.21635 3.24347 6.38045C3.40757 6.54454 3.49976 6.7671 3.49976 6.99917Z" fill="#6C757D"/>
</g>
</g>
<defs>
<clipPath id="clip0_3019_20634">
<rect width="14" height="14" fill="white"/>
</clipPath>
<clipPath id="clip1_3019_20634">
<rect width="14" height="14" fill="white"/>
</clipPath>
</defs>
</svg>
