<svg width="20" height="20" viewBox="0 0 20 20" fill="none" xmlns="http://www.w3.org/2000/svg">
<g clip-path="url(#clip0_3165_27693)">
<path d="M14.467 4.66699H4.86699C4.20699 4.66699 3.67299 5.20699 3.67299 5.86699L3.66699 16.667L6.06699 14.267H14.467C15.127 14.267 15.667 13.727 15.667 13.067V5.86699C15.667 5.20699 15.127 4.66699 14.467 4.66699ZM12.667 11.867H6.66699C6.33699 11.867 6.06699 11.597 6.06699 11.267C6.06699 10.937 6.33699 10.667 6.66699 10.667H12.667C12.997 10.667 13.267 10.937 13.267 11.267C13.267 11.597 12.997 11.867 12.667 11.867ZM12.667 10.067H6.66699C6.33699 10.067 6.06699 9.79699 6.06699 9.46699C6.06699 9.13699 6.33699 8.86699 6.66699 8.86699H12.667C12.997 8.86699 13.267 9.13699 13.267 9.46699C13.267 9.79699 12.997 10.067 12.667 10.067ZM12.667 8.26699H6.66699C6.33699 8.26699 6.06699 7.99699 6.06699 7.66699C6.06699 7.33699 6.33699 7.06699 6.66699 7.06699H12.667C12.997 7.06699 13.267 7.33699 13.267 7.66699C13.267 7.99699 12.997 8.26699 12.667 8.26699Z" fill="white"/>
</g>
<defs>
<clipPath id="clip0_3165_27693">
<rect width="20" height="20" fill="white"/>
</clipPath>
</defs>
</svg>
